<svg width="18" height="18" viewBox="0 0 18 18" fill="none" xmlns="http://www.w3.org/2000/svg">
<path fill-rule="evenodd" clip-rule="evenodd" d="M17.9001 12L17.9001 15.4304C17.9001 15.6847 17.9001 15.9267 17.8835 16.1307C17.8653 16.3531 17.8229 16.6082 17.693 16.8632C17.5108 17.2207 17.2202 17.5113 16.8627 17.6935C16.6077 17.8234 16.3526 17.8658 16.1302 17.884C15.9262 17.9006 15.6842 17.9006 15.4299 17.9006H2.57034C2.31604 17.9006 2.07396 17.9006 1.87001 17.884C1.6476 17.8658 1.3925 17.8234 1.13752 17.6935C0.78001 17.5113 0.489347 17.2207 0.307188 16.8632C0.177271 16.6082 0.134885 16.3531 0.116713 16.1307C0.100049 15.9267 0.100073 15.6847 0.1001 15.4303V12H1.9001V16.0003C1.9001 16.0555 1.94487 16.1003 2.0001 16.1003H16.0001C16.0553 16.1003 16.1001 16.0555 16.1001 16.0003V12H17.9001Z" fill="#171719"/>
<path d="M8.09998 1.00059V10.4186L5.36681 7.84618C5.00485 7.50552 4.43526 7.52278 4.0946 7.88473C3.75393 8.24669 3.77119 8.81628 4.13315 9.15694L8.38315 13.1569C8.72969 13.4831 9.27026 13.4831 9.61681 13.1569L13.8668 9.15694C14.2288 8.81628 14.246 8.24669 13.9054 7.88473C13.5647 7.52278 12.9951 7.50552 12.6332 7.84618L9.89998 10.4186V1.00059C9.89998 0.50353 9.49703 0.100586 8.99998 0.100586C8.50292 0.100586 8.09998 0.50353 8.09998 1.00059Z" fill="#171719"/>
</svg>
