<svg width="23" height="23" viewBox="0 0 23 23" fill="none" xmlns="http://www.w3.org/2000/svg">
<path fill-rule="evenodd" clip-rule="evenodd" d="M18.7825 1.04209C18.3373 0.89743 17.8577 0.89743 17.4125 1.04209C17.095 1.14525 16.8496 1.32074 16.6511 1.48923C16.4691 1.64374 16.2694 1.84342 16.0597 2.05324L16.0351 2.07782L0.616943 17.496V22.3837H5.50464L20.9228 6.96552L20.9473 6.94097C21.1572 6.73118 21.3569 6.53153 21.5114 6.34952C21.6799 6.15105 21.8554 5.90563 21.9585 5.58811C22.1032 5.14291 22.1032 4.66334 21.9585 4.21814C21.8554 3.90061 21.6799 3.65519 21.5114 3.45672C21.3569 3.27473 21.1572 3.07508 20.9474 2.86531L20.1353 2.05326C19.9256 1.84344 19.7259 1.64374 19.5439 1.48923C19.3454 1.32074 19.1 1.14525 18.7825 1.04209ZM18.015 3.06775C18.0605 3.02219 18.1344 3.02219 18.18 3.06775L19.9328 4.82061C19.9784 4.86618 19.9784 4.94004 19.9328 4.9856L4.63478 20.2837H2.71693V18.3658L18.015 3.06775Z" fill="#050505"/>
</svg>
